# xmcd
#
# Track frame offsets:
#	150
#	19877
#	50708
#	62049
#	82316
#	119789
#	134962
#	156922
#	175806
#	209960
#	244173
#
# Disc length: 3541 seconds
#
# Revision: 1
# Processed by: cddbd v1.5.2PL0 Copyright (c) Steve Scherf et al.
# Submitted via: audiograbber 1.83.01
#
DISCID=b80dd30b
DTITLE=Grateful Dead - 79-08-12 Red Rocks Amphitheatre, Morrison CO
DYEAR=1900
DGENRE=
TTITLE0=Promised Land
TTITLE1=They Love Each Other
TTITLE2=Mama Tried
TTITLE3=Mexicali Blues
TTITLE4=Peggy-O
TTITLE5=Lazy Lightning
TTITLE6=Supplication
TTITLE7=Brown-Eyed Women
TTITLE8=Looks Like Rain
TTITLE9=Althea
TTITLE10=Passenger
EXTD=
EXTT0=
EXTT1=
EXTT2=
EXTT3=
EXTT4=
EXTT5=
EXTT6=
EXTT7=
EXTT8=
EXTT9=
EXTT10=
PLAYORDER=
